<svg xmlns="http://www.w3.org/2000/svg" xmlns:xlink="http://www.w3.org/1999/xlink" version="1.1" x="0px" y="0px" viewBox="0 0 55 68.75" style="enable-background:new 0 0 55 55;" xml:space="preserve"><g><path d="M50.9370117,49.541851h-3.3330078V12.9618349c0-0.5599976-0.4500122-1-1-1H38.934021c-0.5499878,0-1,0.4400024-1,1   V49.541851h-3.9100342V25.4218559c0-0.5599976-0.4500122-1-1-1h-7.6699829c-0.5499878,0-1,0.4400024-1,1V49.541851H20.434021   V36.3018608c0-0.5500488-0.4400024-1-1-1h-7.6600342c-0.5599976,0-1,0.4499512-1,1V49.541851H5.0629883V6.5018129   c0-0.5527344-0.4472656-1-1-1s-1,0.4472656-1,1V50.541851c0,0.5527344,0.4472656,1,1,1h7.7109985h7.6600342h5.9199829h7.6699829   h5.9100342h7.6699829h4.3330078c0.5527344,0,1-0.4472656,1-1S51.4897461,49.541851,50.9370117,49.541851z"/><path d="M9.7700195,33.291851c0.3046875,0,0.6044922-0.1376953,0.8007812-0.4003906L22.5874023,16.869976l3.9365234,4.4199219   c0.1875,0.2109375,0.4550781,0.3320312,0.7373047,0.3349609c0.0029297,0,0.0068359,0,0.0097656,0   c0.2783203,0,0.5439453-0.1162109,0.7333984-0.3193359l15-16.1669922c0.375-0.4042969,0.3515625-1.0371094-0.0527344-1.4130859   c-0.4072266-0.3759766-1.0380859-0.3525391-1.4140625,0.0527344L27.2866211,19.1385307l-4.0185547-4.5117178   c-0.1992188-0.2236328-0.4873047-0.3496094-0.7890625-0.3339844c-0.2998047,0.0126953-0.578125,0.1591797-0.7578125,0.3994141   l-12.75,17c-0.3320312,0.4414062-0.2421875,1.0683594,0.2001953,1.3994141   C9.3510742,33.2264214,9.5610352,33.291851,9.7700195,33.291851z"/></g></svg>